<?xml version="1.0" encoding="UTF-8"?>
<svg id="Layer_1" data-name="Layer 1" xmlns="http://www.w3.org/2000/svg" viewBox="0 0 512 512">
  <defs>
    <style>
      .cls-1 {
        fill: #fff;
      }
    </style>
  </defs>
  <path class="cls-1" d="M268.93,334.18l54.76-38.89c57.84-41.08,84.39-97.54,84.39-155.63,0-9.82,3.46-19.47,10.06-28.1l36.96-48.3c4.93-6.45,12.25-11.82,21.16-15.55,8.7-3.64,19.31-3.66,29.02-1.71,3.34.67,6.73-1.11,6.73-3.62v-5.48c-.03-13.29-13.24-24.73-31.59-27.33l-55.66-7.91c-27.54-3.91-56.15-.82-80.81,8.73l-70.53,27.32c-112.16,43.45-191.44,119.96-216.5,208.92L1.69,442.68c-5.71,20.26,3.23,41.21,23.8,55.82,12.17,8.64,28.67,13.5,45.88,13.5h99.36c18.13,0,34.7-7.27,42.81-18.79,7.61-10.81,4.63-23.86-7.4-32.4l-24.43-17.35c-4.72-3.35-7.37-7.9-7.37-12.64v-20.26c0-5.09,5.81-9.22,12.99-9.22s12.99,4.13,12.99,9.22v2.25c0,4.46,2.5,8.74,6.94,11.9l56.45,40.09c9.29,6.6,21.9,10.31,35.05,10.31h25.05c5.93,0,11.73,1.19,16.75,3.42l8.26,3.68c3.19,1.42,7.33-.21,7.33-2.88v-5.89c0-9.27-10.58-16.78-23.63-16.78h-5.41c-11.38,0-22.35-3.01-30.77-8.45l-25.01-16.14c-12.14-7.83-19.06-18.94-19.06-30.59v-38.74c0-10.72,5.99-21,16.67-28.58Z"/>
</svg>