<?xml version="1.0" encoding="UTF-8"?>
<svg id="Layer_1" data-name="Layer 1" xmlns="http://www.w3.org/2000/svg" viewBox="0 0 513 513">
  <defs>
    <style>
      .cls-1 {
        fill: #fff;
      }
    </style>
  </defs>
  <path class="cls-1" d="M256.5,0C114.84,0,0,114.84,0,256.5s114.84,256.5,256.5,256.5,256.5-114.84,256.5-256.5S398.16,0,256.5,0ZM415.43,186.51l-189.48,189.48c-5.47,5.47-14.33,5.47-19.8,0l-108.57-108.57c-5.47-5.47-5.47-14.33,0-19.8l29.7-29.7c5.47-5.47,14.33-5.47,19.8,0l68.97,68.97,149.87-149.87c5.47-5.47,14.33-5.47,19.8,0l29.7,29.7c5.47,5.47,5.47,14.33,0,19.8Z"/>
</svg>