<?xml version="1.0" encoding="UTF-8"?>
<svg id="Layer_1" data-name="Layer 1" xmlns="http://www.w3.org/2000/svg" viewBox="0 0 512 512">
  <defs>
    <style>
      .cls-1 {
        fill: #fff;
        fill-rule: evenodd;
      }
    </style>
  </defs>
  <path class="cls-1" d="M256,0c70.69,0,134.69,28.66,181.02,74.98,46.32,46.33,74.98,110.33,74.98,181.02s-28.66,134.69-74.98,181.01c-46.33,46.32-110.33,74.98-181.02,74.98s-134.69-28.66-181.01-74.98C28.66,390.7,0,326.69,0,256S28.66,121.31,74.98,74.98C121.3,28.66,185.31,0,256,0h0ZM256,96.56c-18.36,0-34.98,7.45-47.01,19.48-12.04,12.04-19.48,28.66-19.48,47.02s7.45,34.98,19.48,47.02c12.03,12.04,28.65,19.48,47.01,19.48s34.99-7.45,47.03-19.48c12.03-12.04,19.48-28.65,19.48-47.02s-7.45-34.98-19.48-47.02c-12.04-12.03-28.66-19.48-47.03-19.48h0ZM388.01,148.29c-12.18,0-23.22,4.94-31.2,12.93-7.99,7.98-12.93,19.01-12.93,31.2s4.94,23.22,12.93,31.2c7.98,7.99,19.02,12.93,31.2,12.93s23.21-4.94,31.2-12.93c7.98-7.98,12.93-19.02,12.93-31.2s-4.94-23.22-12.93-31.2c-7.99-7.99-19.02-12.93-31.2-12.93h0ZM346.03,254.99c1.88,1.68,3.71,3.41,5.5,5.2,24.35,24.35,38.07,57.14,38.07,91.6,0,2.8-.45,5.53-1.29,8.1.64-.04,1.29-.21,1.89-.52l72.08-37.31c1.7-.74,2.89-2.43,2.89-4.4,0-20.22-8.27-38.61-21.6-51.93-13.33-13.32-31.71-21.6-51.94-21.6h-7.25c-14.03,0-27.17,3.98-38.36,10.86h0ZM123.99,148.29c-12.18,0-23.22,4.94-31.2,12.93-7.98,7.98-12.93,19.01-12.93,31.2s4.94,23.22,12.93,31.2c7.98,7.99,19.02,12.93,31.2,12.93s23.22-4.94,31.2-12.93c7.99-7.98,12.93-19.02,12.93-31.2s-4.94-23.22-12.93-31.2c-7.99-7.99-19.02-12.93-31.2-12.93h0ZM165.97,254.99c-11.18-6.89-24.33-10.86-38.36-10.86h-7.25c-20.23,0-38.61,8.27-51.93,21.6-13.33,13.32-21.6,31.71-21.6,51.93,0,1.97,1.2,3.66,2.9,4.4l72.08,37.31c.6.31,1.25.48,1.89.52-.84-2.57-1.29-5.3-1.29-8.1,0-34.46,13.72-67.25,38.07-91.6,1.79-1.79,3.62-3.52,5.5-5.2h0ZM139.72,351.79h.02c0,2.61,1.42,5.12,3.9,6.4l109.06,56.46c2,1.03,4.44,1.11,6.6,0l108.62-56.23c2.57-1.1,4.36-3.66,4.36-6.63,0-30.48-12.46-58.19-32.54-78.27-20.08-20.08-47.79-32.54-78.27-32.54h-10.92c-30.48,0-58.19,12.46-78.27,32.54-20.08,20.08-32.55,47.79-32.55,78.27h0ZM417.32,94.68c-41.28-41.28-98.32-66.82-161.32-66.82s-120.03,25.54-161.31,66.82c-41.28,41.28-66.82,98.32-66.82,161.32s25.54,120.03,66.82,161.31c41.28,41.28,98.32,66.82,161.31,66.82s120.04-25.54,161.32-66.82c41.28-41.28,66.82-98.32,66.82-161.31s-25.54-120.04-66.82-161.32Z"/>
</svg>