<?xml version="1.0" encoding="UTF-8"?>
<svg id="Layer_1" data-name="Layer 1" xmlns="http://www.w3.org/2000/svg" viewBox="0 0 438.86 512">
  <defs>
    <style>
      .cls-1 {
        fill: #fff;
      }
    </style>
  </defs>
  <path class="cls-1" d="M393.14,0h-237.71c-12.12,0-23.75,4.82-32.32,13.39-8.57,8.57-13.39,20.2-13.39,32.32v64H45.71c-12.12,0-23.75,4.82-32.33,13.39-8.57,8.57-13.39,20.2-13.39,32.33v310.86c0,12.12,4.82,23.75,13.39,32.32,8.57,8.57,20.2,13.39,32.33,13.39h237.71c12.12,0,23.75-4.82,32.33-13.39,8.57-8.57,13.39-20.2,13.39-32.32v-64h64c6,0,11.95-1.18,17.49-3.48,5.55-2.3,10.59-5.67,14.83-9.91s7.61-9.28,9.91-14.83c2.3-5.55,3.48-11.49,3.48-17.49V45.71c0-12.12-4.82-23.75-13.39-32.32-8.57-8.57-20.2-13.39-32.32-13.39ZM292.57,466.29c0,2.42-.96,4.75-2.68,6.46-1.71,1.71-4.04,2.68-6.46,2.68H45.71c-2.43,0-4.75-.96-6.46-2.68-1.72-1.72-2.68-4.04-2.68-6.46V155.43c0-2.43.96-4.75,2.68-6.46,1.71-1.72,4.04-2.68,6.46-2.68h237.71c2.43,0,4.75.96,6.46,2.68,1.72,1.71,2.68,4.04,2.68,6.46v310.86ZM402.29,356.57c-.05,2.41-1.02,4.71-2.73,6.41s-4,2.68-6.41,2.73h-64v-210.29c0-12.12-4.82-23.75-13.39-32.33-8.57-8.57-20.2-13.39-32.33-13.39h-137.14V45.71c.05-2.41,1.02-4.71,2.73-6.41,1.7-1.7,4-2.68,6.41-2.73h237.71c2.41.05,4.71,1.02,6.41,2.73,1.7,1.7,2.68,4,2.73,6.41v310.86Z"/>
</svg>