<?xml version="1.0" encoding="UTF-8"?>
<svg id="Layer_1" data-name="Layer 1" xmlns="http://www.w3.org/2000/svg" xmlns:xlink="http://www.w3.org/1999/xlink" viewBox="0 0 512 512">
  <defs>
    <style>
      .cls-1 {
        fill: #fff;
      }

      .cls-2 {
        mask: url(#mask);
      }

      .cls-3 {
        filter: url(#luminosity-invert-noclip);
      }
    </style>
    <filter id="luminosity-invert-noclip" x="0" y="0" width="512" height="512" color-interpolation-filters="sRGB" filterUnits="userSpaceOnUse">
      <feColorMatrix result="cm" values="-1 0 0 0 1 0 -1 0 0 1 0 0 -1 0 1 0 0 0 1 0"/>
      <feFlood flood-color="#fff" result="bg"/>
      <feBlend in="cm" in2="bg"/>
    </filter>
    <mask id="mask" x="0" y="0" width="512" height="512" maskUnits="userSpaceOnUse">
      <g class="cls-3">
        <g>
          <g>
            <path class="cls-1" d="M223.92,220.55c14.29-2.21,23.73-25,21.08-50.9-2.65-25.9-16.38-45.1-30.67-42.89-14.29,2.21-23.73,25-21.08,50.9,2.65,25.9,16.38,45.1,30.67,42.89Z"/>
            <path class="cls-1" d="M288.08,220.55c14.29,2.21,28.02-16.99,30.67-42.89,2.65-25.9-6.79-48.69-21.08-50.9s-28.02,16.99-30.67,42.89c-2.65,25.9,6.79,48.69,21.08,50.9Z"/>
          </g>
          <g>
            <path class="cls-1" d="M181.45,283.16c13.18-4.21,19.64-26.36,14.44-49.48-5.2-23.12-20.1-38.46-33.27-34.25-13.18,4.21-19.64,26.36-14.44,49.48,5.2,23.12,20.1,38.46,33.27,34.25Z"/>
            <path class="cls-1" d="M349.38,199.42c-13.18-4.21-28.07,11.13-33.27,34.25-5.2,23.12,1.26,45.28,14.44,49.48,13.18,4.21,28.07-11.13,33.27-34.25,5.2-23.12-1.26-45.28-14.44-49.48Z"/>
          </g>
          <path class="cls-1" d="M308.03,282.64c-19.06-23.82-13.48-55.67-52.03-55.67s-32.97,31.85-52.03,55.67c-17.68,22.09-35.17,31.54-35.17,56.2,0,32.6,20.01,41.71,41.11,41.58,14.96-.09,30.19-9.9,46.09-9.9s31.13,9.81,46.09,9.9c21.1.13,41.11-8.99,41.11-41.58,0-24.66-17.49-34.11-35.17-56.2Z"/>
        </g>
      </g>
    </mask>
  </defs>
  <g class="cls-2">
    <path class="cls-1" d="M256.52,91.93C185-76.02-12.66,3.85.64,188.98c12.2,169.87,254.84,323.02,254.84,323.02h1.04s242.64-153.16,254.84-323.02c13.3-185.13-183.32-264.99-254.84-97.05Z"/>
  </g>
</svg>