<?xml version="1.0" encoding="UTF-8"?>
<svg id="Layer_1" data-name="Layer 1" xmlns="http://www.w3.org/2000/svg" viewBox="0 0 512 512">
  <defs>
    <style>
      .cls-1 {
        fill: #fff;
        fill-rule: evenodd;
      }
    </style>
  </defs>
  <path class="cls-1" d="M256,0c69.88,0,133.32,23.75,179.4,62.12,47.32,39.42,76.59,94.3,76.59,155.32,0,31.85-8.01,62.07-22.43,89.34-13.27,25.11-32.01,47.65-54.9,66.57l28.97,120.47c1.8,7.61-1.96,15.51-8.4,17.64-3.39,1.13-6.85.42-9.64-1.6l-121.42-82.78c-10.17,2.37-20.65,4.23-31.39,5.54-12.21,1.49-24.5,2.26-36.79,2.26-69.88,0-133.33-23.74-179.4-62.12C29.28,333.35,0,278.45,0,217.44S29.27,101.54,76.6,62.12C122.67,23.74,186.12,0,256,0h0ZM172.41,161.96c0,6.06,2.17,11.65,6.45,16.84,4.28,5.25,9.54,7.82,15.82,7.82,10.56,0,17.75-7.41,21.58-22.24,4-14.21,8.91-24.99,14.68-32.27,5.82-7.35,14.84-10.98,27.12-10.98,10.51,0,19.02,3.64,25.7,10.85,6.62,7.21,9.94,16.1,9.94,26.61,0,5.39-1.08,10.44-3.25,15.02-2.17,4.58-4.86,8.76-8.05,12.53-3.14,3.7-8.34,9.3-15.47,16.64-8.11,8.42-14.62,15.7-19.41,21.83-4.8,6.13-8.62,13.21-11.53,21.29-2.91,8.09-4.34,17.65-4.34,28.7,0,8.83,1.94,15.43,5.94,19.94,3.94,4.45,8.85,6.67,14.62,6.67,11.19,0,17.82-6.81,19.93-20.48,1.2-6.47,2.17-10.98,2.74-13.54.63-2.56,1.49-5.12,2.63-7.68,1.09-2.56,2.8-5.39,5.08-8.49,2.28-3.1,5.31-6.67,9.14-10.71,13.7-14.48,23.18-24.79,28.43-30.92,5.31-6.07,9.88-13.34,13.7-21.76,3.83-8.42,5.77-18.26,5.77-29.44,0-14.15-3.37-27.36-10.11-39.42-6.74-12.13-16.27-21.69-28.6-28.7-12.39-7.07-26.66-10.58-42.83-10.58-17.41,0-32.6,4.18-45.68,12.6-13.02,8.42-22.95,19.06-29.75,31.86-6.79,12.87-10.22,25.54-10.22,38h0ZM254,378.22c6.62,0,12.39-2.63,17.42-7.88,5.02-5.25,7.54-12.53,7.54-21.76,0-8.29-2.4-15.23-7.19-20.89-4.8-5.66-10.74-8.49-17.76-8.49s-13.13,2.83-18.04,8.49c-4.91,5.66-7.36,12.6-7.36,20.89,0,9.36,2.51,16.64,7.59,21.82,5.08,5.19,11.02,7.82,17.81,7.82Z"/>
</svg>