<?xml version="1.0" encoding="UTF-8"?>
<svg id="Layer_1" data-name="Layer 1" xmlns="http://www.w3.org/2000/svg" viewBox="0 0 512 512">
  <defs>
    <style>
      .cls-1 {
        fill: #fff;
        fill-rule: evenodd;
      }
    </style>
  </defs>
  <path class="cls-1" d="M256,0c70.69,0,134.69,28.66,181.02,74.98,46.32,46.33,74.98,110.33,74.98,181.02s-28.66,134.69-74.98,181.01c-46.33,46.32-110.33,74.98-181.02,74.98s-134.69-28.66-181.02-74.98C28.66,390.7,0,326.69,0,256S28.66,121.31,74.98,74.98C121.31,28.66,185.31,0,256,0h0ZM256,75.68c-47.61,0-86.21,38.59-86.21,86.21s38.6,86.21,86.21,86.21,86.21-38.6,86.21-86.21-38.6-86.21-86.21-86.21h0ZM98.22,420.77c7.84-75.62,72.23-135.09,149.84-135.09h15.88c77.61,0,142,59.48,149.84,135.09,1.19-1.14,2.37-2.29,3.54-3.45,41.28-41.28,66.82-98.32,66.82-161.31s-25.54-120.04-66.82-161.32c-41.28-41.28-98.32-66.81-161.32-66.81s-120.04,25.54-161.31,66.81c-41.28,41.29-66.82,98.32-66.82,161.32s25.54,120.03,66.82,161.31c1.16,1.17,2.34,2.32,3.54,3.45Z"/>
</svg>