<?xml version="1.0" encoding="UTF-8"?>
<svg id="Layer_1" data-name="Layer 1" xmlns="http://www.w3.org/2000/svg" viewBox="0 0 512 512">
  <defs>
    <style>
      .cls-1 {
        fill: #fff;
        fill-rule: evenodd;
      }
    </style>
  </defs>
  <path class="cls-1" d="M256,0c70.69,0,134.69,28.66,181.02,74.98,46.32,46.33,74.98,110.32,74.98,181.02s-28.66,134.69-74.98,181.01c-46.33,46.32-110.33,74.98-181.02,74.98s-134.69-28.66-181.02-74.98C28.66,390.69,0,326.69,0,256S28.66,121.31,74.98,74.98C121.31,28.66,185.31,0,256,0h0ZM241.65,143.28v123.1c0,7.93,6.43,14.35,14.35,14.35,2.49,0,4.83-.64,6.87-1.75l76.38-35.33c7.18-3.31,10.32-11.83,7-19-3.31-7.19-11.82-10.32-19-7.01l-56.9,26.32v-100.68c0-7.93-6.43-14.35-14.35-14.35s-14.35,6.43-14.35,14.35h0ZM352.05,61.05l-21.68,37.55c-3.93,6.84-1.57,15.57,5.27,19.5,6.84,3.93,15.57,1.57,19.5-5.27l21.67-37.55c3.93-6.84,1.58-15.58-5.27-19.51-6.84-3.93-15.58-1.57-19.51,5.27h0ZM436.71,135.17l-37.55,21.68c-6.84,3.93-9.2,12.67-5.27,19.51,3.93,6.84,12.67,9.2,19.51,5.27l37.55-21.68c6.84-3.93,9.2-12.67,5.27-19.51-3.92-6.84-12.67-9.2-19.5-5.27h0ZM472.89,241.64h-43.35c-7.92,0-14.35,6.43-14.35,14.35s6.43,14.35,14.35,14.35h43.35c7.92,0,14.35-6.43,14.35-14.35s-6.43-14.35-14.35-14.35h0ZM450.95,352.05l-37.55-21.67c-6.84-3.93-15.58-1.57-19.51,5.27-3.92,6.84-1.57,15.58,5.27,19.51l37.55,21.67c6.84,3.93,15.58,1.57,19.5-5.27,3.93-6.84,1.57-15.58-5.27-19.51h0ZM376.83,436.71l-21.68-37.55c-3.92-6.84-12.67-9.2-19.5-5.27-6.84,3.93-9.2,12.67-5.27,19.51l21.68,37.55c3.93,6.84,12.67,9.2,19.51,5.27,6.84-3.93,9.2-12.67,5.27-19.51h0ZM270.35,472.88v-43.35c0-7.93-6.42-14.35-14.35-14.35s-14.35,6.42-14.35,14.35v43.35c0,7.93,6.43,14.35,14.35,14.35s14.35-6.43,14.35-14.35h0ZM159.95,450.95l21.67-37.55c3.93-6.84,1.57-15.58-5.27-19.51-6.84-3.93-15.58-1.57-19.5,5.27l-21.68,37.55c-3.93,6.84-1.57,15.57,5.27,19.51,6.84,3.93,15.57,1.57,19.51-5.27h0ZM75.29,376.83l37.55-21.68c6.84-3.93,9.2-12.67,5.27-19.51-3.93-6.84-12.67-9.2-19.51-5.27l-37.55,21.68c-6.84,3.93-9.2,12.67-5.27,19.51,3.93,6.84,12.67,9.2,19.51,5.27h0ZM39.11,270.36h43.36c7.92,0,14.35-6.43,14.35-14.35s-6.43-14.35-14.35-14.35h-43.36c-7.92,0-14.35,6.43-14.35,14.35s6.43,14.35,14.35,14.35h0ZM61.05,159.95l37.55,21.67c6.84,3.93,15.58,1.57,19.51-5.27,3.93-6.84,1.57-15.58-5.27-19.51l-37.55-21.67c-6.84-3.93-15.58-1.57-19.51,5.27-3.93,6.84-1.57,15.58,5.27,19.51h0ZM135.16,75.29l21.68,37.55c3.93,6.84,12.67,9.2,19.51,5.27,6.84-3.93,9.2-12.67,5.27-19.51l-21.68-37.55c-3.93-6.84-12.67-9.2-19.51-5.27-6.84,3.93-9.2,12.67-5.27,19.51h0ZM241.64,39.12v43.36c0,7.92,6.43,14.35,14.35,14.35s14.35-6.43,14.35-14.35v-43.36c0-7.92-6.42-14.35-14.35-14.35s-14.35,6.43-14.35,14.35Z"/>
</svg>