<?xml version="1.0" encoding="UTF-8"?>
<svg id="Layer_1" data-name="Layer 1" xmlns="http://www.w3.org/2000/svg" viewBox="0 0 512 512">
  <defs>
    <style>
      .cls-1 {
        fill: #fff;
        fill-rule: evenodd;
      }
    </style>
  </defs>
  <path class="cls-1" d="M11.13,0h489.74c6.15,0,11.13,7.64,11.13,17.07v477.87c0,9.43-4.98,17.07-11.13,17.07H11.13c-6.14,0-11.13-7.64-11.13-17.07V17.07C0,7.64,4.99,0,11.13,0h0ZM28.5,136.53h452.66c6.15,0,11.13-7.64,11.13-17.07s-4.98-17.07-11.13-17.07H28.5c-6.14,0-11.13,7.65-11.13,17.07s4.99,17.07,11.13,17.07h0ZM55.57,238.93h66.78c6.14,0,11.13-7.64,11.13-17.07s-4.99-17.07-11.13-17.07H55.57c-6.14,0-11.13,7.64-11.13,17.07s4.99,17.07,11.13,17.07h0ZM55.57,341.34h199.17c6.14,0,11.13-7.65,11.13-17.07s-4.99-17.07-11.13-17.07H55.57c-6.14,0-11.13,7.64-11.13,17.07s4.99,17.07,11.13,17.07h0ZM356.17,204.8c-6.14,0-11.13,7.64-11.13,17.07v102.4c0,9.42,4.98,17.07,11.13,17.07h100.18c6.14,0,11.13-7.65,11.13-17.07v-102.4c0-9.43-4.99-17.07-11.13-17.07h-100.18Z"/>
</svg>